<mxfile host="app.diagrams.net" modified="2021-07-08T15:18:02.779Z" agent="5.0 (Windows)" etag="e5uAYTiLPoKqyT0AoBeD" version="14.8.4" type="github">
  <diagram id="p8FlEyl20M93Dwgj12fs" name="Page-1">
    <mxGraphModel dx="2858" dy="2283" grid="1" gridSize="10" guides="1" tooltips="1" connect="1" arrows="1" fold="1" page="1" pageScale="1" pageWidth="827" pageHeight="1169" math="0" shadow="0">
      <root>
        <mxCell id="0" />
        <mxCell id="1" parent="0" />
        <mxCell id="dVfndMS_2mIjp0aVbVk_-9" style="edgeStyle=orthogonalEdgeStyle;rounded=0;orthogonalLoop=1;jettySize=auto;html=1;" edge="1" parent="1" source="dVfndMS_2mIjp0aVbVk_-1" target="dVfndMS_2mIjp0aVbVk_-70">
          <mxGeometry relative="1" as="geometry">
            <mxPoint x="750" y="40" as="targetPoint" />
          </mxGeometry>
        </mxCell>
        <mxCell id="dVfndMS_2mIjp0aVbVk_-10" value="no" style="edgeLabel;html=1;align=center;verticalAlign=middle;resizable=0;points=[];" vertex="1" connectable="0" parent="dVfndMS_2mIjp0aVbVk_-9">
          <mxGeometry x="-0.125" relative="1" as="geometry">
            <mxPoint as="offset" />
          </mxGeometry>
        </mxCell>
        <mxCell id="dVfndMS_2mIjp0aVbVk_-32" value="NO" style="edgeLabel;html=1;align=center;verticalAlign=middle;resizable=0;points=[];" vertex="1" connectable="0" parent="dVfndMS_2mIjp0aVbVk_-9">
          <mxGeometry x="-0.0933" y="-3" relative="1" as="geometry">
            <mxPoint as="offset" />
          </mxGeometry>
        </mxCell>
        <mxCell id="dVfndMS_2mIjp0aVbVk_-30" value="" style="edgeStyle=orthogonalEdgeStyle;rounded=0;orthogonalLoop=1;jettySize=auto;html=1;" edge="1" parent="1" source="dVfndMS_2mIjp0aVbVk_-1" target="dVfndMS_2mIjp0aVbVk_-16">
          <mxGeometry relative="1" as="geometry">
            <Array as="points">
              <mxPoint x="340" y="115" />
              <mxPoint x="370" y="115" />
            </Array>
          </mxGeometry>
        </mxCell>
        <mxCell id="dVfndMS_2mIjp0aVbVk_-31" value="YES" style="edgeLabel;html=1;align=center;verticalAlign=middle;resizable=0;points=[];" vertex="1" connectable="0" parent="dVfndMS_2mIjp0aVbVk_-30">
          <mxGeometry x="-0.24" relative="1" as="geometry">
            <mxPoint as="offset" />
          </mxGeometry>
        </mxCell>
        <mxCell id="dVfndMS_2mIjp0aVbVk_-1" value="&lt;div style=&quot;font-size: 14px&quot;&gt;&lt;b&gt;&lt;font style=&quot;font-size: 14px&quot; color=&quot;#FF0080&quot;&gt;MV101 - Mem ID / SSN&lt;/font&gt;&lt;/b&gt;&lt;/div&gt;&lt;div&gt;$same_member==false&lt;/div&gt;" style="rhombus;whiteSpace=wrap;html=1;" vertex="1" parent="1">
          <mxGeometry x="155" width="370" height="80" as="geometry" />
        </mxCell>
        <mxCell id="dVfndMS_2mIjp0aVbVk_-22" value="" style="edgeStyle=orthogonalEdgeStyle;rounded=0;orthogonalLoop=1;jettySize=auto;html=1;" edge="1" parent="1" source="dVfndMS_2mIjp0aVbVk_-5" target="dVfndMS_2mIjp0aVbVk_-7">
          <mxGeometry relative="1" as="geometry" />
        </mxCell>
        <mxCell id="dVfndMS_2mIjp0aVbVk_-26" value="" style="edgeStyle=orthogonalEdgeStyle;rounded=0;orthogonalLoop=1;jettySize=auto;html=1;" edge="1" parent="1" source="dVfndMS_2mIjp0aVbVk_-5" target="dVfndMS_2mIjp0aVbVk_-25">
          <mxGeometry relative="1" as="geometry" />
        </mxCell>
        <mxCell id="dVfndMS_2mIjp0aVbVk_-41" value="" style="edgeStyle=orthogonalEdgeStyle;rounded=0;orthogonalLoop=1;jettySize=auto;html=1;entryX=0.5;entryY=0;entryDx=0;entryDy=0;exitX=1;exitY=0.5;exitDx=0;exitDy=0;" edge="1" parent="1" source="dVfndMS_2mIjp0aVbVk_-25" target="dVfndMS_2mIjp0aVbVk_-40">
          <mxGeometry relative="1" as="geometry">
            <mxPoint x="630" y="470" as="sourcePoint" />
            <mxPoint x="810" y="600" as="targetPoint" />
          </mxGeometry>
        </mxCell>
        <mxCell id="dVfndMS_2mIjp0aVbVk_-61" value="YES" style="edgeLabel;html=1;align=center;verticalAlign=middle;resizable=0;points=[];" vertex="1" connectable="0" parent="dVfndMS_2mIjp0aVbVk_-41">
          <mxGeometry x="0.4803" relative="1" as="geometry">
            <mxPoint y="1" as="offset" />
          </mxGeometry>
        </mxCell>
        <mxCell id="dVfndMS_2mIjp0aVbVk_-64" value="" style="edgeStyle=orthogonalEdgeStyle;rounded=0;orthogonalLoop=1;jettySize=auto;html=1;" edge="1" parent="1" source="dVfndMS_2mIjp0aVbVk_-5" target="dVfndMS_2mIjp0aVbVk_-63">
          <mxGeometry relative="1" as="geometry" />
        </mxCell>
        <mxCell id="dVfndMS_2mIjp0aVbVk_-5" value="&lt;div&gt;Enter the member&#39;s Humana ID number or the Social Security Number. - (H23456789/000012345 or 523-12-3456)&lt;/div&gt;" style="shape=parallelogram;perimeter=parallelogramPerimeter;whiteSpace=wrap;html=1;fixedSize=1;" vertex="1" parent="1">
          <mxGeometry x="117.5" y="250" width="445" height="80" as="geometry" />
        </mxCell>
        <mxCell id="dVfndMS_2mIjp0aVbVk_-14" value="" style="edgeStyle=orthogonalEdgeStyle;rounded=0;orthogonalLoop=1;jettySize=auto;html=1;" edge="1" parent="1" source="dVfndMS_2mIjp0aVbVk_-7" target="dVfndMS_2mIjp0aVbVk_-13">
          <mxGeometry relative="1" as="geometry" />
        </mxCell>
        <mxCell id="dVfndMS_2mIjp0aVbVk_-33" value="YES" style="edgeLabel;html=1;align=center;verticalAlign=middle;resizable=0;points=[];" vertex="1" connectable="0" parent="dVfndMS_2mIjp0aVbVk_-14">
          <mxGeometry x="-0.7376" relative="1" as="geometry">
            <mxPoint as="offset" />
          </mxGeometry>
        </mxCell>
        <mxCell id="dVfndMS_2mIjp0aVbVk_-7" value="&lt;div style=&quot;font-size: 14px&quot;&gt;&lt;font style=&quot;font-size: 14px&quot; color=&quot;#FF0080&quot;&gt;&lt;b&gt;MV229 - Group ID Unknown&lt;/b&gt;&lt;/font&gt;&lt;/div&gt;&lt;div&gt;@notknown:(i don&#39;t know)&lt;/div&gt;" style="rhombus;whiteSpace=wrap;html=1;" vertex="1" parent="1">
          <mxGeometry x="208.75" y="380" width="262.5" height="90" as="geometry" />
        </mxCell>
        <mxCell id="dVfndMS_2mIjp0aVbVk_-24" value="" style="edgeStyle=orthogonalEdgeStyle;rounded=0;orthogonalLoop=1;jettySize=auto;html=1;" edge="1" parent="1" source="dVfndMS_2mIjp0aVbVk_-13" target="dVfndMS_2mIjp0aVbVk_-23">
          <mxGeometry relative="1" as="geometry" />
        </mxCell>
        <mxCell id="dVfndMS_2mIjp0aVbVk_-13" value="memberIDorSSN_Unknown" style="whiteSpace=wrap;html=1;" vertex="1" parent="1">
          <mxGeometry x="240" y="530" width="200" height="60" as="geometry" />
        </mxCell>
        <mxCell id="dVfndMS_2mIjp0aVbVk_-16" value="&lt;div&gt;member_group=&quot;member&quot;&lt;/div&gt;memberid_ssn_retries=0" style="whiteSpace=wrap;html=1;" vertex="1" parent="1">
          <mxGeometry x="230" y="150" width="185" height="60" as="geometry" />
        </mxCell>
        <mxCell id="dVfndMS_2mIjp0aVbVk_-20" value="" style="endArrow=classic;html=1;exitX=0.5;exitY=1;exitDx=0;exitDy=0;" edge="1" parent="1" source="dVfndMS_2mIjp0aVbVk_-16" target="dVfndMS_2mIjp0aVbVk_-5">
          <mxGeometry width="50" height="50" relative="1" as="geometry">
            <mxPoint x="390" y="360" as="sourcePoint" />
            <mxPoint x="-77" y="150" as="targetPoint" />
          </mxGeometry>
        </mxCell>
        <mxCell id="dVfndMS_2mIjp0aVbVk_-23" value="&lt;span class=&quot;next-step__target-container&quot;&gt;&lt;a class=&quot;bx--link wa-nxt-link next-step__target&quot; href=&quot;https://us-south.assistant.watson.cloud.ibm.com/crn:v1:bluemix:public:conversation:us-south:a%2F532860abf1ec5493097b4bb10fe703af:26202d55-f776-4d95-84e2-304e4eefd4f4::/skills/d483e16f-fd2e-4c3c-bcab-ecc5198729ef/build/dialog#node=node_1_1561592776247&quot;&gt;GV400 - MemberIDorSSN Unknown (Evaluate responses)&lt;/a&gt;&lt;/span&gt;" style="ellipse;shape=cloud;whiteSpace=wrap;html=1;" vertex="1" parent="1">
          <mxGeometry x="280" y="660" width="120" height="80" as="geometry" />
        </mxCell>
        <mxCell id="dVfndMS_2mIjp0aVbVk_-28" value="" style="edgeStyle=orthogonalEdgeStyle;rounded=0;orthogonalLoop=1;jettySize=auto;html=1;" edge="1" parent="1" source="dVfndMS_2mIjp0aVbVk_-25" target="dVfndMS_2mIjp0aVbVk_-27">
          <mxGeometry relative="1" as="geometry" />
        </mxCell>
        <mxCell id="dVfndMS_2mIjp0aVbVk_-29" value="YES" style="edgeLabel;html=1;align=center;verticalAlign=middle;resizable=0;points=[];" vertex="1" connectable="0" parent="dVfndMS_2mIjp0aVbVk_-28">
          <mxGeometry x="0.225" relative="1" as="geometry">
            <mxPoint y="-9" as="offset" />
          </mxGeometry>
        </mxCell>
        <mxCell id="dVfndMS_2mIjp0aVbVk_-60" value="" style="edgeStyle=orthogonalEdgeStyle;rounded=0;orthogonalLoop=1;jettySize=auto;html=1;" edge="1" parent="1" source="dVfndMS_2mIjp0aVbVk_-25" target="dVfndMS_2mIjp0aVbVk_-59">
          <mxGeometry relative="1" as="geometry" />
        </mxCell>
        <mxCell id="dVfndMS_2mIjp0aVbVk_-62" value="YES" style="edgeLabel;html=1;align=center;verticalAlign=middle;resizable=0;points=[];" vertex="1" connectable="0" parent="dVfndMS_2mIjp0aVbVk_-60">
          <mxGeometry x="0.0109" relative="1" as="geometry">
            <mxPoint x="1" as="offset" />
          </mxGeometry>
        </mxCell>
        <mxCell id="dVfndMS_2mIjp0aVbVk_-25" value="&lt;div style=&quot;font-size: 14px&quot;&gt;&lt;font color=&quot;#FF0080&quot;&gt;&lt;b&gt;Member ID Data Validation&lt;/b&gt;&lt;/font&gt;&lt;/div&gt;&lt;div&gt;input.text!=&quot;&quot; &amp;amp;&amp;amp; !@notknown:(i don&#39;t know)&lt;/div&gt;" style="rhombus;whiteSpace=wrap;html=1;" vertex="1" parent="1">
          <mxGeometry x="510" y="370" width="287.5" height="80" as="geometry" />
        </mxCell>
        <mxCell id="dVfndMS_2mIjp0aVbVk_-35" value="" style="edgeStyle=orthogonalEdgeStyle;rounded=0;orthogonalLoop=1;jettySize=auto;html=1;" edge="1" parent="1" source="dVfndMS_2mIjp0aVbVk_-27" target="dVfndMS_2mIjp0aVbVk_-34">
          <mxGeometry relative="1" as="geometry" />
        </mxCell>
        <mxCell id="dVfndMS_2mIjp0aVbVk_-36" value="YES" style="edgeLabel;html=1;align=center;verticalAlign=middle;resizable=0;points=[];" vertex="1" connectable="0" parent="dVfndMS_2mIjp0aVbVk_-35">
          <mxGeometry x="0.2859" relative="1" as="geometry">
            <mxPoint as="offset" />
          </mxGeometry>
        </mxCell>
        <mxCell id="dVfndMS_2mIjp0aVbVk_-27" value="&lt;div style=&quot;font-size: 14px&quot;&gt;&lt;font color=&quot;#FF0080&quot;&gt;&lt;b&gt;MV103 - Input Check Invalid Input - two strikes rule&lt;/b&gt;&lt;/font&gt;&lt;/div&gt;&lt;div&gt;($memberid_ssn_retries&amp;gt;0) &amp;amp;&amp;amp; (@dataValue != &#39;ssn&#39; ||   input.text==&quot;##INVALID_SOCIALSECURITYNUMBER##&quot;)&lt;/div&gt;" style="rhombus;whiteSpace=wrap;html=1;" vertex="1" parent="1">
          <mxGeometry x="483.75" y="520" width="277.5" height="80" as="geometry" />
        </mxCell>
        <mxCell id="dVfndMS_2mIjp0aVbVk_-38" value="" style="edgeStyle=orthogonalEdgeStyle;rounded=0;orthogonalLoop=1;jettySize=auto;html=1;" edge="1" parent="1" source="dVfndMS_2mIjp0aVbVk_-34" target="dVfndMS_2mIjp0aVbVk_-37">
          <mxGeometry relative="1" as="geometry" />
        </mxCell>
        <mxCell id="dVfndMS_2mIjp0aVbVk_-34" value="memberid_ssn_retries++" style="whiteSpace=wrap;html=1;" vertex="1" parent="1">
          <mxGeometry x="510" y="630" width="172.5" height="60" as="geometry" />
        </mxCell>
        <mxCell id="dVfndMS_2mIjp0aVbVk_-37" value="&lt;span class=&quot;next-step__target-container&quot;&gt;&lt;a class=&quot;bx--link wa-nxt-link next-step__target&quot; href=&quot;https://us-south.assistant.watson.cloud.ibm.com/crn:v1:bluemix:public:conversation:us-south:a%2F532860abf1ec5493097b4bb10fe703af:26202d55-f776-4d95-84e2-304e4eefd4f4::/skills/d483e16f-fd2e-4c3c-bcab-ecc5198729ef/build/dialog#node=node_6_1565983614301&quot;&gt;MV600 - Two Strikes rule (Evaluate responses)&lt;/a&gt;&lt;/span&gt;" style="ellipse;shape=cloud;whiteSpace=wrap;html=1;" vertex="1" parent="1">
          <mxGeometry x="562.5" y="760" width="120" height="80" as="geometry" />
        </mxCell>
        <mxCell id="dVfndMS_2mIjp0aVbVk_-43" value="" style="edgeStyle=orthogonalEdgeStyle;rounded=0;orthogonalLoop=1;jettySize=auto;html=1;" edge="1" parent="1" source="dVfndMS_2mIjp0aVbVk_-40" target="dVfndMS_2mIjp0aVbVk_-42">
          <mxGeometry relative="1" as="geometry" />
        </mxCell>
        <mxCell id="dVfndMS_2mIjp0aVbVk_-44" value="YES" style="edgeLabel;html=1;align=center;verticalAlign=middle;resizable=0;points=[];" vertex="1" connectable="0" parent="dVfndMS_2mIjp0aVbVk_-43">
          <mxGeometry x="0.2628" y="1" relative="1" as="geometry">
            <mxPoint as="offset" />
          </mxGeometry>
        </mxCell>
        <mxCell id="dVfndMS_2mIjp0aVbVk_-40" value="&lt;div&gt;&lt;font color=&quot;#FF0080&quot;&gt;&lt;b&gt;&lt;font style=&quot;font-size: 14px&quot;&gt;MV103 - Input Check Invalid Input&lt;/font&gt;&lt;/b&gt;&lt;/font&gt;&lt;/div&gt;&lt;div&gt;@dataValue != &#39;ssn&#39; ||  input.text==&quot;##INVALID_MEMBERID#&lt;/div&gt;#&quot; || input.text==&quot;##INVALID_SSN##&quot; ||input.text==&quot;##INVALID_SOCIALSECURITYNUMBER##&quot;" style="rhombus;whiteSpace=wrap;html=1;" vertex="1" parent="1">
          <mxGeometry x="780" y="530" width="380" height="80" as="geometry" />
        </mxCell>
        <mxCell id="dVfndMS_2mIjp0aVbVk_-46" value="" style="edgeStyle=orthogonalEdgeStyle;rounded=0;orthogonalLoop=1;jettySize=auto;html=1;" edge="1" parent="1" source="dVfndMS_2mIjp0aVbVk_-42" target="dVfndMS_2mIjp0aVbVk_-45">
          <mxGeometry relative="1" as="geometry" />
        </mxCell>
        <mxCell id="dVfndMS_2mIjp0aVbVk_-42" value="memberid_ssn_retries++" style="whiteSpace=wrap;html=1;" vertex="1" parent="1">
          <mxGeometry x="910" y="670" width="120" height="60" as="geometry" />
        </mxCell>
        <mxCell id="dVfndMS_2mIjp0aVbVk_-48" value="" style="edgeStyle=orthogonalEdgeStyle;rounded=0;orthogonalLoop=1;jettySize=auto;html=1;" edge="1" parent="1" source="dVfndMS_2mIjp0aVbVk_-45" target="dVfndMS_2mIjp0aVbVk_-47">
          <mxGeometry relative="1" as="geometry" />
        </mxCell>
        <mxCell id="dVfndMS_2mIjp0aVbVk_-45" value="Please use the proper format for Humana ID number or the Social Security Number - (H23456789/000012345 or 523-12-3456)" style="shape=parallelogram;perimeter=parallelogramPerimeter;whiteSpace=wrap;html=1;fixedSize=1;" vertex="1" parent="1">
          <mxGeometry x="920" y="790" width="120" height="60" as="geometry" />
        </mxCell>
        <mxCell id="dVfndMS_2mIjp0aVbVk_-47" value="&lt;span class=&quot;next-step__target-container&quot;&gt;&lt;a class=&quot;bx--link wa-nxt-link next-step__target&quot; href=&quot;https://us-south.assistant.watson.cloud.ibm.com/crn:v1:bluemix:public:conversation:us-south:a%2F532860abf1ec5493097b4bb10fe703af:26202d55-f776-4d95-84e2-304e4eefd4f4::/skills/d483e16f-fd2e-4c3c-bcab-ecc5198729ef/build/dialog#node=node_3_1562158907934&quot;&gt;Member ID Data Validation (Wait for user input, then evaluate condition)&lt;/a&gt;&lt;/span&gt;" style="ellipse;shape=cloud;whiteSpace=wrap;html=1;" vertex="1" parent="1">
          <mxGeometry x="930" y="920" width="120" height="80" as="geometry" />
        </mxCell>
        <mxCell id="dVfndMS_2mIjp0aVbVk_-53" value="" style="edgeStyle=orthogonalEdgeStyle;rounded=0;orthogonalLoop=1;jettySize=auto;html=1;exitX=0.5;exitY=1;exitDx=0;exitDy=0;" edge="1" parent="1" source="dVfndMS_2mIjp0aVbVk_-59" target="dVfndMS_2mIjp0aVbVk_-52">
          <mxGeometry relative="1" as="geometry" />
        </mxCell>
        <mxCell id="dVfndMS_2mIjp0aVbVk_-54" value="YES" style="edgeLabel;html=1;align=center;verticalAlign=middle;resizable=0;points=[];" vertex="1" connectable="0" parent="dVfndMS_2mIjp0aVbVk_-53">
          <mxGeometry x="0.2741" relative="1" as="geometry">
            <mxPoint as="offset" />
          </mxGeometry>
        </mxCell>
        <mxCell id="dVfndMS_2mIjp0aVbVk_-52" value="&lt;span class=&quot;next-step__target-container&quot;&gt;&lt;a class=&quot;bx--link wa-nxt-link next-step__target&quot; href=&quot;https://us-south.assistant.watson.cloud.ibm.com/crn:v1:bluemix:public:conversation:us-south:a%2F532860abf1ec5493097b4bb10fe703af:26202d55-f776-4d95-84e2-304e4eefd4f4::/skills/d483e16f-fd2e-4c3c-bcab-ecc5198729ef/build/dialog#node=node_4_1559316219198&quot;&gt;MV105 - Mem DOB (Evaluate responses)&lt;/a&gt;&lt;/span&gt;" style="ellipse;shape=cloud;whiteSpace=wrap;html=1;" vertex="1" parent="1">
          <mxGeometry x="1250" y="660" width="120" height="80" as="geometry" />
        </mxCell>
        <mxCell id="dVfndMS_2mIjp0aVbVk_-59" value="&lt;br&gt;&lt;div&gt;&lt;font size=&quot;1&quot; color=&quot;#FF0080&quot;&gt;&lt;b style=&quot;font-size: 14px&quot;&gt;MV103 - Input Check Valid Input&lt;/b&gt;&lt;/font&gt;&lt;/div&gt;@dataValue:ssn" style="rhombus;whiteSpace=wrap;html=1;" vertex="1" parent="1">
          <mxGeometry x="1166.25" y="480" width="287.5" height="80" as="geometry" />
        </mxCell>
        <mxCell id="dVfndMS_2mIjp0aVbVk_-66" value="" style="edgeStyle=orthogonalEdgeStyle;rounded=0;orthogonalLoop=1;jettySize=auto;html=1;" edge="1" parent="1" source="dVfndMS_2mIjp0aVbVk_-63" target="dVfndMS_2mIjp0aVbVk_-65">
          <mxGeometry relative="1" as="geometry" />
        </mxCell>
        <mxCell id="dVfndMS_2mIjp0aVbVk_-67" value="YES" style="edgeLabel;html=1;align=center;verticalAlign=middle;resizable=0;points=[];" vertex="1" connectable="0" parent="dVfndMS_2mIjp0aVbVk_-66">
          <mxGeometry x="0.2688" y="-1" relative="1" as="geometry">
            <mxPoint as="offset" />
          </mxGeometry>
        </mxCell>
        <mxCell id="dVfndMS_2mIjp0aVbVk_-63" value="&lt;div style=&quot;font-size: 14px&quot;&gt;&lt;font color=&quot;#FF0080&quot;&gt;&lt;b&gt;MV230 - Group ID Known&lt;/b&gt;&lt;/font&gt;&lt;/div&gt;&lt;div&gt;$CURRENT_GROUP!=null &amp;amp;&amp;amp; @notknown:(i don&#39;t know)&lt;/div&gt;" style="rhombus;whiteSpace=wrap;html=1;" vertex="1" parent="1">
          <mxGeometry x="-140" y="380" width="280" height="80" as="geometry" />
        </mxCell>
        <mxCell id="dVfndMS_2mIjp0aVbVk_-69" value="" style="edgeStyle=orthogonalEdgeStyle;rounded=0;orthogonalLoop=1;jettySize=auto;html=1;" edge="1" parent="1" source="dVfndMS_2mIjp0aVbVk_-65" target="dVfndMS_2mIjp0aVbVk_-68">
          <mxGeometry relative="1" as="geometry" />
        </mxCell>
        <mxCell id="dVfndMS_2mIjp0aVbVk_-65" value="memberIDorSSN_Unknown" style="whiteSpace=wrap;html=1;" vertex="1" parent="1">
          <mxGeometry x="-60" y="550" width="120" height="60" as="geometry" />
        </mxCell>
        <mxCell id="dVfndMS_2mIjp0aVbVk_-68" value="&lt;span class=&quot;next-step__target-container&quot;&gt;&lt;a class=&quot;bx--link wa-nxt-link next-step__target&quot; href=&quot;https://us-south.assistant.watson.cloud.ibm.com/crn:v1:bluemix:public:conversation:us-south:a%2F532860abf1ec5493097b4bb10fe703af:26202d55-f776-4d95-84e2-304e4eefd4f4::/skills/d483e16f-fd2e-4c3c-bcab-ecc5198729ef/build/dialog#node=node_23_1559504491260&quot;&gt;MV301 - First Name (Evaluate responses)&lt;/a&gt;&lt;/span&gt;" style="ellipse;shape=cloud;whiteSpace=wrap;html=1;" vertex="1" parent="1">
          <mxGeometry x="-60" y="680" width="120" height="80" as="geometry" />
        </mxCell>
        <mxCell id="dVfndMS_2mIjp0aVbVk_-72" value="" style="edgeStyle=orthogonalEdgeStyle;rounded=0;orthogonalLoop=1;jettySize=auto;html=1;" edge="1" parent="1" source="dVfndMS_2mIjp0aVbVk_-70" target="dVfndMS_2mIjp0aVbVk_-71">
          <mxGeometry relative="1" as="geometry" />
        </mxCell>
        <mxCell id="dVfndMS_2mIjp0aVbVk_-73" value="YES" style="edgeLabel;html=1;align=center;verticalAlign=middle;resizable=0;points=[];" vertex="1" connectable="0" parent="dVfndMS_2mIjp0aVbVk_-72">
          <mxGeometry x="-0.2086" y="1" relative="1" as="geometry">
            <mxPoint as="offset" />
          </mxGeometry>
        </mxCell>
        <mxCell id="dVfndMS_2mIjp0aVbVk_-75" value="" style="edgeStyle=orthogonalEdgeStyle;rounded=0;orthogonalLoop=1;jettySize=auto;html=1;" edge="1" parent="1" source="dVfndMS_2mIjp0aVbVk_-70" target="dVfndMS_2mIjp0aVbVk_-74">
          <mxGeometry relative="1" as="geometry" />
        </mxCell>
        <mxCell id="dVfndMS_2mIjp0aVbVk_-76" value="NO" style="edgeLabel;html=1;align=center;verticalAlign=middle;resizable=0;points=[];" vertex="1" connectable="0" parent="dVfndMS_2mIjp0aVbVk_-75">
          <mxGeometry x="-0.2517" y="1" relative="1" as="geometry">
            <mxPoint as="offset" />
          </mxGeometry>
        </mxCell>
        <mxCell id="dVfndMS_2mIjp0aVbVk_-70" value="&lt;div style=&quot;font-size: 14px&quot;&gt;&lt;font color=&quot;#FF0080&quot;&gt;&lt;b&gt;MV101 - Same Member coming from IC&lt;/b&gt;&lt;/font&gt;&lt;/div&gt;&lt;div&gt;$same_member==true&lt;/div&gt;" style="rhombus;whiteSpace=wrap;html=1;" vertex="1" parent="1">
          <mxGeometry x="710" width="350" height="80" as="geometry" />
        </mxCell>
        <mxCell id="dVfndMS_2mIjp0aVbVk_-71" value="&lt;span class=&quot;next-step__target-container&quot;&gt;&lt;a class=&quot;bx--link wa-nxt-link next-step__target&quot; href=&quot;https://us-south.assistant.watson.cloud.ibm.com/crn:v1:bluemix:public:conversation:us-south:a%2F532860abf1ec5493097b4bb10fe703af:26202d55-f776-4d95-84e2-304e4eefd4f4::/skills/d483e16f-fd2e-4c3c-bcab-ecc5198729ef/build/dialog#node=node_7_1559495050012&quot;&gt;Post MV201- Correct Member (Evaluate responses)&lt;/a&gt;&lt;/span&gt;" style="ellipse;shape=cloud;whiteSpace=wrap;html=1;" vertex="1" parent="1">
          <mxGeometry x="825" y="160" width="120" height="80" as="geometry" />
        </mxCell>
        <mxCell id="dVfndMS_2mIjp0aVbVk_-78" value="" style="edgeStyle=orthogonalEdgeStyle;rounded=0;orthogonalLoop=1;jettySize=auto;html=1;" edge="1" parent="1" source="dVfndMS_2mIjp0aVbVk_-74" target="dVfndMS_2mIjp0aVbVk_-77">
          <mxGeometry relative="1" as="geometry" />
        </mxCell>
        <mxCell id="dVfndMS_2mIjp0aVbVk_-79" value="YES" style="edgeLabel;html=1;align=center;verticalAlign=middle;resizable=0;points=[];" vertex="1" connectable="0" parent="dVfndMS_2mIjp0aVbVk_-78">
          <mxGeometry x="-0.3732" y="-1" relative="1" as="geometry">
            <mxPoint as="offset" />
          </mxGeometry>
        </mxCell>
        <mxCell id="dVfndMS_2mIjp0aVbVk_-74" value="&lt;div style=&quot;font-size: 14px&quot;&gt;&lt;font color=&quot;#FF0080&quot;&gt;&lt;b&gt;MV201 - Member Verification&lt;/b&gt;&lt;/font&gt;&lt;/div&gt;&lt;div&gt;input.text==&quot;##MEMBER_SEARCH_SCCUSSFULL##&quot; || $MEMBER_SEARCH_SCCUSSFULL##&quot; || $MEMBER_SELECTED==&quot;YES&quot;&lt;/div&gt;" style="rhombus;whiteSpace=wrap;html=1;" vertex="1" parent="1">
          <mxGeometry x="1140" width="350" height="80" as="geometry" />
        </mxCell>
        <mxCell id="dVfndMS_2mIjp0aVbVk_-81" value="" style="edgeStyle=orthogonalEdgeStyle;rounded=0;orthogonalLoop=1;jettySize=auto;html=1;" edge="1" parent="1" source="dVfndMS_2mIjp0aVbVk_-77" target="dVfndMS_2mIjp0aVbVk_-80">
          <mxGeometry relative="1" as="geometry" />
        </mxCell>
        <mxCell id="dVfndMS_2mIjp0aVbVk_-77" value="Is the member&#39;s name [MEMBER_FIRST_NAME] [MEMBER_LAST_NAME]?" style="shape=parallelogram;perimeter=parallelogramPerimeter;whiteSpace=wrap;html=1;fixedSize=1;" vertex="1" parent="1">
          <mxGeometry x="1255" y="170" width="120" height="60" as="geometry" />
        </mxCell>
        <mxCell id="dVfndMS_2mIjp0aVbVk_-83" value="" style="edgeStyle=orthogonalEdgeStyle;rounded=0;orthogonalLoop=1;jettySize=auto;html=1;" edge="1" parent="1" source="dVfndMS_2mIjp0aVbVk_-80" target="dVfndMS_2mIjp0aVbVk_-82">
          <mxGeometry relative="1" as="geometry">
            <mxPoint x="1597.5" y="370" as="sourcePoint" />
          </mxGeometry>
        </mxCell>
        <mxCell id="dVfndMS_2mIjp0aVbVk_-89" value="YES" style="edgeLabel;html=1;align=center;verticalAlign=middle;resizable=0;points=[];" vertex="1" connectable="0" parent="dVfndMS_2mIjp0aVbVk_-83">
          <mxGeometry x="-0.3394" relative="1" as="geometry">
            <mxPoint y="-1" as="offset" />
          </mxGeometry>
        </mxCell>
        <mxCell id="dVfndMS_2mIjp0aVbVk_-93" value="" style="edgeStyle=orthogonalEdgeStyle;rounded=0;orthogonalLoop=1;jettySize=auto;html=1;" edge="1" parent="1" source="dVfndMS_2mIjp0aVbVk_-80" target="dVfndMS_2mIjp0aVbVk_-92">
          <mxGeometry relative="1" as="geometry" />
        </mxCell>
        <mxCell id="dVfndMS_2mIjp0aVbVk_-80" value="INPUT" style="rhombus;whiteSpace=wrap;html=1;" vertex="1" parent="1">
          <mxGeometry x="1453.75" y="240" width="80" height="80" as="geometry" />
        </mxCell>
        <mxCell id="dVfndMS_2mIjp0aVbVk_-86" value="" style="edgeStyle=orthogonalEdgeStyle;rounded=0;orthogonalLoop=1;jettySize=auto;html=1;" edge="1" parent="1" source="dVfndMS_2mIjp0aVbVk_-82" target="dVfndMS_2mIjp0aVbVk_-85">
          <mxGeometry relative="1" as="geometry" />
        </mxCell>
        <mxCell id="dVfndMS_2mIjp0aVbVk_-87" value="YES" style="edgeLabel;html=1;align=center;verticalAlign=middle;resizable=0;points=[];" vertex="1" connectable="0" parent="dVfndMS_2mIjp0aVbVk_-86">
          <mxGeometry x="-0.7689" relative="1" as="geometry">
            <mxPoint as="offset" />
          </mxGeometry>
        </mxCell>
        <mxCell id="dVfndMS_2mIjp0aVbVk_-82" value="&lt;div&gt;&lt;font color=&quot;#FF0080&quot;&gt;&lt;b&gt;&lt;font style=&quot;font-size: 14px&quot;&gt;Post MV201- Correct Member&lt;/font&gt;&lt;/b&gt;&lt;/font&gt;&lt;/div&gt;&lt;div&gt;&lt;br&gt;&lt;/div&gt;" style="rhombus;whiteSpace=wrap;html=1;" vertex="1" parent="1">
          <mxGeometry x="1340" y="370" width="270" height="80" as="geometry" />
        </mxCell>
        <mxCell id="dVfndMS_2mIjp0aVbVk_-85" value="member_validated=true" style="whiteSpace=wrap;html=1;" vertex="1" parent="1">
          <mxGeometry x="1440" y="580" width="120" height="60" as="geometry" />
        </mxCell>
        <mxCell id="dVfndMS_2mIjp0aVbVk_-95" value="" style="edgeStyle=orthogonalEdgeStyle;rounded=0;orthogonalLoop=1;jettySize=auto;html=1;" edge="1" parent="1" source="dVfndMS_2mIjp0aVbVk_-92" target="dVfndMS_2mIjp0aVbVk_-94">
          <mxGeometry relative="1" as="geometry" />
        </mxCell>
        <mxCell id="dVfndMS_2mIjp0aVbVk_-92" value="&lt;div style=&quot;font-size: 14px&quot;&gt;&lt;font color=&quot;#FF0080&quot;&gt;&lt;b&gt;Incorrect Member&lt;/b&gt;&lt;/font&gt;&lt;/div&gt;Check the member number and date of birth you entered, is it correct?" style="shape=parallelogram;perimeter=parallelogramPerimeter;whiteSpace=wrap;html=1;fixedSize=1;" vertex="1" parent="1">
          <mxGeometry x="1140" y="250" width="253.75" height="60" as="geometry" />
        </mxCell>
        <mxCell id="dVfndMS_2mIjp0aVbVk_-97" value="" style="edgeStyle=orthogonalEdgeStyle;rounded=0;orthogonalLoop=1;jettySize=auto;html=1;" edge="1" parent="1" source="dVfndMS_2mIjp0aVbVk_-94" target="dVfndMS_2mIjp0aVbVk_-96">
          <mxGeometry relative="1" as="geometry" />
        </mxCell>
        <mxCell id="dVfndMS_2mIjp0aVbVk_-104" value="YES" style="edgeLabel;html=1;align=center;verticalAlign=middle;resizable=0;points=[];" vertex="1" connectable="0" parent="dVfndMS_2mIjp0aVbVk_-97">
          <mxGeometry x="0.5686" y="1" relative="1" as="geometry">
            <mxPoint x="-1" as="offset" />
          </mxGeometry>
        </mxCell>
        <mxCell id="dVfndMS_2mIjp0aVbVk_-94" value="INPUT" style="rhombus;whiteSpace=wrap;html=1;" vertex="1" parent="1">
          <mxGeometry x="960.005" y="240" width="80" height="80" as="geometry" />
        </mxCell>
        <mxCell id="dVfndMS_2mIjp0aVbVk_-99" value="" style="edgeStyle=orthogonalEdgeStyle;rounded=0;orthogonalLoop=1;jettySize=auto;html=1;" edge="1" parent="1" source="dVfndMS_2mIjp0aVbVk_-96" target="dVfndMS_2mIjp0aVbVk_-98">
          <mxGeometry relative="1" as="geometry" />
        </mxCell>
        <mxCell id="dVfndMS_2mIjp0aVbVk_-96" value="I&#39;m unable to find the correct information." style="shape=parallelogram;perimeter=parallelogramPerimeter;whiteSpace=wrap;html=1;fixedSize=1;" vertex="1" parent="1">
          <mxGeometry x="940.0050000000001" y="340" width="120" height="60" as="geometry" />
        </mxCell>
        <mxCell id="dVfndMS_2mIjp0aVbVk_-98" value="&lt;span class=&quot;next-step__target-container&quot;&gt;&lt;a class=&quot;bx--link wa-nxt-link next-step__target&quot; href=&quot;https://us-south.assistant.watson.cloud.ibm.com/crn:v1:bluemix:public:conversation:us-south:a%2F532860abf1ec5493097b4bb10fe703af:26202d55-f776-4d95-84e2-304e4eefd4f4::/skills/d483e16f-fd2e-4c3c-bcab-ecc5198729ef/build/dialog#node=node_1_1565185124881&quot;&gt;IC101 precursor Force No Input Turn, Then Save Interaction (Evaluate responses)&lt;/a&gt;&lt;/span&gt;" style="ellipse;shape=cloud;whiteSpace=wrap;html=1;" vertex="1" parent="1">
          <mxGeometry x="1110.005" y="330" width="120" height="80" as="geometry" />
        </mxCell>
        <mxCell id="dVfndMS_2mIjp0aVbVk_-102" value="" style="endArrow=classic;html=1;exitX=0;exitY=0.5;exitDx=0;exitDy=0;entryX=0.5;entryY=0;entryDx=0;entryDy=0;" edge="1" parent="1" source="dVfndMS_2mIjp0aVbVk_-94" target="dVfndMS_2mIjp0aVbVk_-1">
          <mxGeometry width="50" height="50" relative="1" as="geometry">
            <mxPoint x="830" y="320" as="sourcePoint" />
            <mxPoint x="900" y="320" as="targetPoint" />
          </mxGeometry>
        </mxCell>
        <mxCell id="dVfndMS_2mIjp0aVbVk_-103" value="NO" style="edgeLabel;html=1;align=center;verticalAlign=middle;resizable=0;points=[];" vertex="1" connectable="0" parent="dVfndMS_2mIjp0aVbVk_-102">
          <mxGeometry x="-0.3964" relative="1" as="geometry">
            <mxPoint x="1" as="offset" />
          </mxGeometry>
        </mxCell>
      </root>
    </mxGraphModel>
  </diagram>
</mxfile>
